<svg id="Слой_1" data-name="Слой 1" xmlns="http://www.w3.org/2000/svg" viewBox="0 0 150 50"><defs><style>.cls-1{fill:#f8f7f7;}.cls-2{fill:#a6a6a6;}.cls-3{fill:#010101;}.cls-4{fill:#fff;}</style></defs><title>appstore</title><rect class="cls-1" width="150" height="50"/><path class="cls-2" d="M137.77.07H10.87L9.73.09a16,16,0,0,0-2.5.22,8.15,8.15,0,0,0-2.37.78,7.93,7.93,0,0,0-2,1.47,7.48,7.48,0,0,0-1.47,2A8,8,0,0,0,.59,7a16,16,0,0,0-.23,2.5c0,.38,0,.76,0,1.14V39.45c0,.38,0,.76,0,1.15a16,16,0,0,0,.23,2.49,8,8,0,0,0,.78,2.38,7.28,7.28,0,0,0,1.47,2,7.48,7.48,0,0,0,2,1.47,8.17,8.17,0,0,0,2.37.79,16,16,0,0,0,2.5.22l1.14,0H139.12l1.15,0a15.89,15.89,0,0,0,2.49-.22,8.4,8.4,0,0,0,2.39-.79,7.59,7.59,0,0,0,2-1.47,8.1,8.1,0,0,0,1.48-2,8.61,8.61,0,0,0,.77-2.38,16,16,0,0,0,.23-2.49c0-.39,0-.77,0-1.15s0-.91,0-1.37V12c0-.46,0-.91,0-1.37s0-.76,0-1.14a16,16,0,0,0-.23-2.5,8.61,8.61,0,0,0-.77-2.38,8.06,8.06,0,0,0-3.49-3.49,8.38,8.38,0,0,0-2.39-.78,15.89,15.89,0,0,0-2.49-.22l-1.15,0Z"/><path class="cls-3" d="M10.88,48.89l-1.13,0a16.53,16.53,0,0,1-2.33-.2A7.19,7.19,0,0,1,5.35,48a7,7,0,0,1-1.74-1.27A6.54,6.54,0,0,1,2.34,45a7.29,7.29,0,0,1-.68-2.07,15.42,15.42,0,0,1-.21-2.34c0-.27,0-1.14,0-1.14V10.6s0-.86,0-1.11a15.3,15.3,0,0,1,.21-2.34,7.19,7.19,0,0,1,.68-2.07A6.61,6.61,0,0,1,3.6,3.33,7,7,0,0,1,7.42,1.38a15.19,15.19,0,0,1,2.34-.21H139.11l1.14,0a13.89,13.89,0,0,1,2.32.2,7.32,7.32,0,0,1,2.09.68,7.08,7.08,0,0,1,3,3,7.42,7.42,0,0,1,.67,2.06,15.43,15.43,0,0,1,.21,2.35c0,.36,0,.74,0,1.11s0,.92,0,1.37V38.08c0,.45,0,.9,0,1.34s0,.78,0,1.16a15,15,0,0,1-.21,2.32,7.33,7.33,0,0,1-.67,2.08,7,7,0,0,1-1.27,1.73A6.88,6.88,0,0,1,144.65,48a7,7,0,0,1-2.08.69,15.16,15.16,0,0,1-2.33.2l-1.12,0H10.88Z"/><g id="_Group_" data-name=" Group "><g id="_Group_2" data-name=" Group 2"><g id="_Group_3" data-name=" Group 3"><path id="_Path_" data-name=" Path " class="cls-4" d="M31.25,25.4a6.18,6.18,0,0,1,2.94-5.18,6.32,6.32,0,0,0-5-2.69c-2.1-.22-4.13,1.25-5.19,1.25s-2.74-1.23-4.51-1.2A6.65,6.65,0,0,0,13.93,21c-2.41,4.18-.61,10.32,1.7,13.69,1.16,1.66,2.51,3.5,4.28,3.44S22.28,37,24.37,37s2.68,1.11,4.48,1.07,3-1.66,4.15-3.33a13.58,13.58,0,0,0,1.89-3.86A6,6,0,0,1,31.25,25.4Z"/><path id="_Path_2" data-name=" Path 2" class="cls-4" d="M27.84,15.3A6.07,6.07,0,0,0,29.23,11a6.17,6.17,0,0,0-4,2.07,5.79,5.79,0,0,0-1.43,4.19A5.07,5.07,0,0,0,27.84,15.3Z"/></g></g><path class="cls-4" d="M53.13,33.93H47.22L45.8,38.12H43.3l5.6-15.5h2.59l5.6,15.5H54.54ZM47.83,32h4.68l-2.3-6.8h-.07Z"/><path class="cls-4" d="M69.17,32.47c0,3.51-1.88,5.77-4.71,5.77a3.84,3.84,0,0,1-3.56-2h0v5.6H58.53v-15h2.24V28.7h0a4,4,0,0,1,3.59-2C67.28,26.7,69.17,29,69.17,32.47Zm-2.38,0c0-2.29-1.19-3.79-3-3.79s-3,1.54-3,3.79,1.19,3.8,3,3.8S66.79,34.78,66.79,32.47Z"/><path class="cls-4" d="M81.6,32.47c0,3.51-1.88,5.77-4.71,5.77a3.84,3.84,0,0,1-3.56-2h0v5.6H71v-15h2.25V28.7h0a4,4,0,0,1,3.6-2C79.71,26.7,81.6,29,81.6,32.47Zm-2.38,0c0-2.29-1.18-3.79-3-3.79s-3,1.54-3,3.79,1.19,3.8,3,3.8,3-1.49,3-3.8Z"/><path class="cls-4" d="M89.82,33.8c.17,1.54,1.67,2.55,3.71,2.55s3.36-1,3.36-2.4c0-1.2-.85-1.92-2.86-2.41l-2-.49c-2.84-.68-4.16-2-4.16-4.17,0-2.68,2.33-4.51,5.63-4.51s5.52,1.83,5.6,4.51H96.75c-.14-1.55-1.42-2.48-3.29-2.48s-3.15.94-3.15,2.32c0,1.09.82,1.74,2.82,2.23l1.71.42c3.17.75,4.5,2,4.5,4.29,0,2.9-2.31,4.72-6,4.72-3.43,0-5.75-1.78-5.9-4.58Z"/><path class="cls-4" d="M104.34,24.15v2.67h2.15v1.84h-2.15v6.23c0,1,.43,1.42,1.37,1.42.26,0,.51,0,.77-.06v1.83a6.24,6.24,0,0,1-1.29.1c-2.29,0-3.18-.85-3.18-3V28.66h-1.64V26.82H102V24.15Z"/><path class="cls-4" d="M107.73,32.47c0-3.55,2.1-5.79,5.36-5.79s5.36,2.24,5.36,5.79-2.07,5.79-5.36,5.79S107.73,36,107.73,32.47Zm8.36,0c0-2.44-1.12-3.88-3-3.88s-3,1.45-3,3.88,1.11,3.88,3,3.88,3-1.43,3-3.88Z"/><path class="cls-4" d="M120.36,26.82h2.21v1.93h.06a2.7,2.7,0,0,1,2.71-2.05,3.57,3.57,0,0,1,.8.09V29a3.35,3.35,0,0,0-1-.14,2.34,2.34,0,0,0-2.43,2.24,2.17,2.17,0,0,0,0,.36v6.7h-2.32Z"/><path class="cls-4" d="M136.83,34.8c-.31,2.05-2.31,3.46-4.86,3.46-3.29,0-5.33-2.2-5.33-5.73s2-5.85,5.23-5.85S137,28.83,137,32.26v.79h-8v.14a2.94,2.94,0,0,0,2.67,3.19,2.29,2.29,0,0,0,.37,0,2.55,2.55,0,0,0,2.61-1.59ZM129,31.43h5.65a2.71,2.71,0,0,0-2.56-2.86h-.21A2.87,2.87,0,0,0,129,31.41Z"/></g><g id="_Group_4" data-name=" Group 4"><path class="cls-4" d="M46.18,14.11h1A1.26,1.26,0,0,0,48.58,13v-.1c0-.68-.51-1.13-1.39-1.13a1.34,1.34,0,0,0-1.5,1.13v0H44.6a2.32,2.32,0,0,1,2.46-2.19h.17c1.46,0,2.49.82,2.49,2a1.73,1.73,0,0,1-1.35,1.71v.08A1.74,1.74,0,0,1,50,16.37a2.48,2.48,0,0,1-2.73,2.22h0a2.49,2.49,0,0,1-2.79-2.12s0-.06,0-.09h1.11c.07.72.72,1.18,1.69,1.18s1.59-.52,1.59-1.25-.59-1.19-1.63-1.19h-1Z"/><path class="cls-4" d="M51.29,16.82c0-1,.75-1.6,2.09-1.68l1.52-.09v-.48c0-.6-.39-.93-1.15-.93s-1,.23-1.17.62H51.51c.11-1,1-1.58,2.29-1.58s2.21.7,2.21,1.89v3.84H54.94v-.79h-.09a1.91,1.91,0,0,1-1.69.88A1.69,1.69,0,0,1,51.3,17,1,1,0,0,1,51.29,16.82Zm3.61-.48v-.47L53.53,16c-.78.05-1.13.31-1.13.81s.44.8,1.05.8a1.34,1.34,0,0,0,1.45-1.19Z"/><path class="cls-4" d="M59,13.72v4.69H57.84V12.79h3.7v.93Z"/><path class="cls-4" d="M68.26,15.6c0,1.78-.9,2.9-2.32,2.9a1.83,1.83,0,0,1-1.73-.94h-.09v2.72H63V12.79h1.07v.93h.08a1.94,1.94,0,0,1,1.77-1C67.36,12.7,68.26,13.81,68.26,15.6Zm-1.14,0c0-1.19-.56-1.91-1.5-1.91s-1.52.73-1.52,1.91.58,1.9,1.51,1.9S67.12,16.79,67.12,15.6Z"/><path class="cls-4" d="M69.74,20.42v-1a2.19,2.19,0,0,0,.36,0,1,1,0,0,0,1-.79l.09-.27-2-5.64h1.21l1.41,4.46h.09l1.4-4.46h1.18l-2.1,5.85c-.48,1.37-1,1.81-2.15,1.81Z"/><path class="cls-4" d="M75.31,16.81h1.1c.11.5.58.76,1.23.76s1.19-.33,1.19-.83-.41-.8-1.19-.8H76.8v-.87h.82c.67,0,1-.25,1-.72s-.33-.73-1-.73-1.07.26-1.14.71H75.41a2,2,0,0,1,2.21-1.65c1.34,0,2.1.6,2.1,1.55a1.15,1.15,0,0,1-.89,1.15v.09a1.26,1.26,0,0,1,1.1,1.27c0,1.06-.91,1.77-2.29,1.77S75.41,18,75.31,16.81Z"/><path class="cls-4" d="M81.53,18.41V12.79h1.1v3.86h.09l2.59-3.86h1.1v5.62h-1.1V14.52h-.09l-2.59,3.89Z"/><path class="cls-4" d="M92.46,13.72H90.69v4.69H89.58V13.72H87.81v-.93h4.65Z"/><path class="cls-4" d="M98.43,16.89A2.29,2.29,0,0,1,96,18.52,2.56,2.56,0,0,1,93.38,16a2.75,2.75,0,0,1,0-.41,2.6,2.6,0,0,1,2.23-2.92l.36,0c1.57,0,2.51,1.07,2.51,2.83v.39h-4V16a1.49,1.49,0,0,0,1.36,1.61H96a1.34,1.34,0,0,0,1.34-.68Zm-3.9-1.81h2.84a1.34,1.34,0,0,0-1.25-1.45H96A1.45,1.45,0,0,0,94.53,15v0Z"/><path class="cls-4" d="M103.14,12.79h2.53c1.1,0,1.74.56,1.74,1.43a1.19,1.19,0,0,1-1,1.18v.09a1.28,1.28,0,0,1,1.2,1.3c0,1-.73,1.62-2,1.62h-2.55Zm1.09.85v1.45h1.1c.67,0,1-.25,1-.73s-.28-.72-.86-.72Zm0,2.27v1.65h1.32c.65,0,1-.29,1-.82s-.4-.83-1.15-.83Z"/></g></svg>