<svg id="Слой_1" data-name="Слой 1" xmlns="http://www.w3.org/2000/svg" xmlns:xlink="http://www.w3.org/1999/xlink" viewBox="0 0 150 50"><defs><style>.cls-1{fill:#f8f7f7;}.cls-2{fill:#a6a6a6;}.cls-10,.cls-11,.cls-3{fill:#fff;}.cls-4{fill:url(#linear-gradient);}.cls-5{fill:url(#linear-gradient-2);}.cls-6{fill:url(#linear-gradient-3);}.cls-7{fill:url(#linear-gradient-4);}.cls-8,.cls-9{fill:#010101;}.cls-8{opacity:0.2;}.cls-10,.cls-8,.cls-9{isolation:isolate;}.cls-9{opacity:0.12;}.cls-10{opacity:0.25;}.cls-11{stroke:#fff;stroke-miterlimit:10;stroke-width:0.2px;}</style><linearGradient id="linear-gradient" x1="24.25" y1="39.27" x2="5.61" y2="20.63" gradientTransform="matrix(1, 0, 0, -1, 0, 52)" gradientUnits="userSpaceOnUse"><stop offset="0" stop-color="#4696d2"/><stop offset="0.01" stop-color="#4598d3"/><stop offset="0.26" stop-color="#3fb9eb"/><stop offset="0.51" stop-color="#4ac1ed"/><stop offset="0.76" stop-color="#5cc4e6"/><stop offset="1" stop-color="#60c4e5"/></linearGradient><linearGradient id="linear-gradient-2" x1="37.62" y1="26.73" x2="10.74" y2="26.73" gradientTransform="matrix(1, 0, 0, -1, 0, 52)" gradientUnits="userSpaceOnUse"><stop offset="0" stop-color="#ffe00a"/><stop offset="0.41" stop-color="#fbbc0f"/><stop offset="0.78" stop-color="#f7a418"/><stop offset="1" stop-color="#f59a1c"/></linearGradient><linearGradient id="linear-gradient-3" x1="27.61" y1="24.18" x2="2.33" y2="-1.1" gradientTransform="matrix(1, 0, 0, -1, 0, 52)" gradientUnits="userSpaceOnUse"><stop offset="0" stop-color="#e8424a"/><stop offset="1" stop-color="#c31262"/></linearGradient><linearGradient id="linear-gradient-4" x1="8.14" y1="48.75" x2="19.43" y2="37.46" gradientTransform="matrix(1, 0, 0, -1, 0, 52)" gradientUnits="userSpaceOnUse"><stop offset="0" stop-color="#32a071"/><stop offset="0.07" stop-color="#2da771"/><stop offset="0.48" stop-color="#4fb26f"/><stop offset="0.8" stop-color="#61b668"/><stop offset="1" stop-color="#64b664"/></linearGradient></defs><title>googlestore</title><rect class="cls-1" width="150" height="50"/><rect x="0.03" y="3.05" width="149.97" height="44.43" rx="5.55" ry="5.55"/><path class="cls-2" d="M144.45,3.94a4.67,4.67,0,0,1,4.66,4.67V41.93a4.67,4.67,0,0,1-4.66,4.67H5.59A4.68,4.68,0,0,1,.92,41.93V8.61A4.68,4.68,0,0,1,5.59,3.94H144.45m0-.89H5.59A5.57,5.57,0,0,0,0,8.61V41.93a5.57,5.57,0,0,0,5.56,5.56H144.45A5.57,5.57,0,0,0,150,41.93V8.61a5.57,5.57,0,0,0-5.55-5.56Z"/><path class="cls-3" d="M75.72,27.22a4.73,4.73,0,1,0,4.75,4.72A4.65,4.65,0,0,0,75.72,27.22Zm0,7.58a2.87,2.87,0,1,1,2.67-2.86A2.73,2.73,0,0,1,75.72,34.8ZM65.38,27.22a4.73,4.73,0,1,0,4.74,4.72A4.65,4.65,0,0,0,65.38,27.22Zm0,7.58A2.87,2.87,0,1,1,68,31.94,2.74,2.74,0,0,1,65.38,34.8ZM53.07,28.67v2h4.8a4.21,4.21,0,0,1-1.09,2.52,4.91,4.91,0,0,1-3.71,1.47,5.33,5.33,0,0,1,0-10.66,5.11,5.11,0,0,1,3.62,1.43L58.1,24a7,7,0,0,0-5-2,7.34,7.34,0,1,0,0,14.68,6.5,6.5,0,0,0,6.86-6.75,6.53,6.53,0,0,0-.11-1.25Zm50.33,1.55a4.39,4.39,0,0,0-4-3,4.49,4.49,0,0,0-4.46,4.72,4.63,4.63,0,0,0,4.69,4.73,4.7,4.7,0,0,0,3.94-2.1l-1.61-1.07a2.69,2.69,0,0,1-2.33,1.3,2.39,2.39,0,0,1-2.29-1.43l6.32-2.61ZM97,31.8A2.59,2.59,0,0,1,99.43,29a1.82,1.82,0,0,1,1.75,1Zm-5.14,4.58H93.9V22.49H91.82Zm-3.4-8.11h-.07a3.28,3.28,0,0,0-2.49-1.05,4.73,4.73,0,0,0,0,9.45,3.23,3.23,0,0,0,2.49-1.08h.07v.68c0,1.81-1,2.78-2.52,2.78a2.62,2.62,0,0,1-2.38-1.69l-1.81.76a4.51,4.51,0,0,0,4.19,2.79c2.43,0,4.49-1.43,4.49-4.92V27.5h-2ZM86,34.8A2.7,2.7,0,0,1,83.41,32,2.73,2.73,0,0,1,86,29.08,2.66,2.66,0,0,1,88.57,32,2.63,2.63,0,0,1,86,34.8Zm27.09-12.31h-5V36.38h2.07V31.12h2.9a4.32,4.32,0,1,0,0-8.63Zm.05,6.7h-3V24.43h3a2.38,2.38,0,1,1,0,4.76Zm12.81-2a3.89,3.89,0,0,0-3.7,2.13l1.84.77a2,2,0,0,1,1.9-1,2,2,0,0,1,2.18,1.78V31a4.54,4.54,0,0,0-2.17-.54c-2,0-4,1.09-4,3.13a3.21,3.21,0,0,0,3.45,3,2.9,2.9,0,0,0,2.64-1.36h.08v1.08h2V31C130.21,28.57,128.37,27.19,126,27.19Zm-.25,7.61c-.68,0-1.63-.34-1.63-1.18,0-1.07,1.18-1.48,2.2-1.48a3.82,3.82,0,0,1,1.9.46A2.52,2.52,0,0,1,125.74,34.8Zm11.76-7.3-2.38,6h-.07l-2.47-6h-2.23l3.7,8.41-2.11,4.68h2.16l5.7-13.09Zm-18.67,8.88h2.07V22.49h-2.07Z"/><path class="cls-4" d="M11.63,11.43A2.19,2.19,0,0,0,11.11,13V37.56a2.22,2.22,0,0,0,.52,1.56l.08.08L25.47,25.43v-.32L11.71,11.35Z"/><path class="cls-5" d="M30.06,30l-4.59-4.59v-.32l4.59-4.59.1.06,5.44,3.09c1.55.88,1.55,2.32,0,3.21L30.16,30Z"/><path class="cls-6" d="M30.16,30l-4.69-4.69L11.63,39.12a1.8,1.8,0,0,0,2.31.06L30.16,30"/><path class="cls-7" d="M30.16,20.58,13.94,11.36a1.81,1.81,0,0,0-2.31.07L25.47,25.27Z"/><path class="cls-8" d="M30.06,29.86,13.94,39a1.85,1.85,0,0,1-2.23,0h0l-.08.09h0l.08.08h0a1.86,1.86,0,0,0,2.23,0L30.16,30Z"/><path class="cls-9" d="M11.63,39a2.19,2.19,0,0,1-.52-1.56v.17a2.2,2.2,0,0,0,.52,1.56l.08-.09Z"/><path class="cls-9" d="M35.6,26.71l-5.54,3.15.1.1,5.44-3.08a2,2,0,0,0,1.16-1.61h0A2,2,0,0,1,35.6,26.71Z"/><path class="cls-10" d="M13.94,11.52,35.6,23.83a2.07,2.07,0,0,1,1.16,1.44h0a2,2,0,0,0-1.16-1.6L13.94,11.36c-1.56-.88-2.83-.15-2.83,1.63v.16C11.11,11.37,12.38,10.64,13.94,11.52Z"/><path class="cls-11" d="M46.82,18.91H46V16.68h.65a3.18,3.18,0,0,0,.85-2.55v-3.3H52v5.85h.74v2.23h-.82V17.5h-5Zm1.53-4.78a4.39,4.39,0,0,1-.63,2.55h3.37v-5H48.35Z"/><path class="cls-11" d="M59.37,16.63a3.46,3.46,0,0,1-4.89,0,3.41,3.41,0,0,1-1-2.47,3.43,3.43,0,0,1,1-2.47,3.3,3.3,0,0,1,2.45-1,3.26,3.26,0,0,1,2.44,1,3.4,3.4,0,0,1,1,2.46A3.41,3.41,0,0,1,59.37,16.63Zm-4.25-.55a2.42,2.42,0,0,0,1.81.74,2.45,2.45,0,0,0,1.81-.74,2.63,2.63,0,0,0,.74-1.92,2.62,2.62,0,0,0-.74-1.91,2.46,2.46,0,0,0-1.81-.75,2.43,2.43,0,0,0-1.81.75,2.58,2.58,0,0,0-.74,1.91A2.59,2.59,0,0,0,55.12,16.08Z"/><path class="cls-11" d="M64.66,17.64a3.4,3.4,0,0,1-3.46-3.48,3.42,3.42,0,0,1,3.46-3.48,3.07,3.07,0,0,1,2.45,1.09l-.59.58a2.26,2.26,0,0,0-1.86-.85,2.55,2.55,0,0,0-2.59,2.66,2.58,2.58,0,0,0,.75,1.93,2.53,2.53,0,0,0,1.84.73,2.63,2.63,0,0,0,2-1l.6.59a3.22,3.22,0,0,1-1.15.87A3.42,3.42,0,0,1,64.66,17.64Z"/><path class="cls-11" d="M70.77,17.5h-.86V11.65H68.05v-.82h4.58v.82H70.77Z"/><path class="cls-11" d="M78.51,10.83,76,16.45a1.66,1.66,0,0,1-1.55,1.19,1.92,1.92,0,0,1-.67-.14l.23-.8a.89.89,0,0,0,.45.12.78.78,0,0,0,.46-.11,1.1,1.1,0,0,0,.3-.43l.24-.53-2.24-4.92h1l1.65,3.83h0l1.61-3.83Z"/><path class="cls-11" d="M79.48,17.5V10.83H84.3V17.5h-.85V11.65H80.34V17.5Z"/><path class="cls-11" d="M85.83,17.5V10.83h.86v2.86H90V10.83h.86V17.5H90v-3H86.69v3Z"/><path class="cls-11" d="M97.85,16.63a3.45,3.45,0,0,1-4.88,0,3.38,3.38,0,0,1-1-2.47,3.39,3.39,0,0,1,1-2.47,3.44,3.44,0,0,1,4.88,0,3.37,3.37,0,0,1,1,2.46A3.38,3.38,0,0,1,97.85,16.63Zm-4.25-.55a2.58,2.58,0,0,0,3.62,0A2.63,2.63,0,0,0,98,14.16a2.62,2.62,0,0,0-.74-1.91,2.56,2.56,0,0,0-3.62,0,2.62,2.62,0,0,0-.74,1.91A2.63,2.63,0,0,0,93.6,16.08Z"/><path class="cls-11" d="M102.34,17.5V10.83h2.41a1.92,1.92,0,0,1,1.35.52,1.67,1.67,0,0,1,.58,1.29,1.5,1.5,0,0,1-.91,1.39v0a1.63,1.63,0,0,1,.81.58,1.51,1.51,0,0,1,.32.95,1.73,1.73,0,0,1-.6,1.35,2,2,0,0,1-1.42.55Zm.85-3.81h1.56a1,1,0,0,0,.78-.32,1.06,1.06,0,0,0,.29-.71,1,1,0,0,0-.29-.69.9.9,0,0,0-.74-.32h-1.6Zm0,3h1.73a1,1,0,0,0,.8-.35,1.12,1.12,0,0,0,.3-.75,1.05,1.05,0,0,0-.31-.75,1.07,1.07,0,0,0-.83-.34h-1.69Z"/></svg>